<?xml version="1.0" encoding="utf-8"?>
<!-- Svg Vector Icons : http://www.onlinewebfonts.com/icon -->
<!DOCTYPE svg PUBLIC "-//W3C//DTD SVG 1.1//EN" "http://www.w3.org/Graphics/SVG/1.1/DTD/svg11.dtd">
<svg version="1.1" xmlns="http://www.w3.org/2000/svg" xmlns:xlink="http://www.w3.org/1999/xlink" x="0px" y="0px" viewBox="0 0 1000 1000" enable-background="new 0 0 1000 1000" xml:space="preserve">
<metadata> Svg Vector Icons : http://www.onlinewebfonts.com/icon </metadata>
<g><g><g><rect x="366.4" y="10" width="89.1" height="89.1"/><rect x="10" y="366.4" width="89.1" height="89.1"/><rect x="10" y="544.5" width="89.1" height="89.1"/><rect x="900.9" y="366.4" width="89.1" height="89.1"/><rect x="900.9" y="544.5" width="89.1" height="89.1"/><rect x="544.5" y="10" width="89.1" height="89.1"/><rect x="366.4" y="900.9" width="89.1" height="89.1"/><rect x="544.5" y="900.9" width="89.1" height="89.1"/><polygon points="99.1,722.7 10,722.7 10,990 277.3,990 277.3,900.9 99.1,900.9 "/><polygon points="10,277.3 99.1,277.3 99.1,99.1 277.3,99.1 277.3,10 10,10 "/><polygon points="900.9,900.9 722.7,900.9 722.7,990 990,990 990,722.7 900.9,722.7 "/><polygon points="722.7,10 722.7,99.1 900.9,99.1 900.9,277.3 990,277.3 990,10 "/></g></g><g></g><g></g><g></g><g></g><g></g><g></g><g></g><g></g><g></g><g></g><g></g><g></g><g></g><g></g><g></g></g>
</svg>